<svg xmlns="http://www.w3.org/2000/svg" xmlns:xlink="http://www.w3.org/1999/xlink" viewBox="0 0 300 300"><defs><style>.cls-1{fill:none;}.cls-2{clip-path:url(#clip-path);}.cls-3{fill:#e70095;}.cls-4{fill:#fff;}.cls-5{opacity:0.8;}.cls-6{clip-path:url(#clip-path-4);}.cls-7{fill:#010101;}</style><clipPath id="clip-path"><rect class="cls-1" width="300" height="300"/></clipPath><clipPath id="clip-path-4"><rect class="cls-1" x="83.5" y="43.05" width="110.92" height="62.49"/></clipPath></defs><title>wambo-icon</title><g id="wambo-icon"><g class="cls-2"><g class="cls-2"><rect class="cls-3" width="300" height="300"/><g class="cls-2"><path class="cls-4" d="M216.51,258.27C199.13,275.64,179.08,285,150,285s-49.13-9.36-66.5-26.73C58.44,233.21,59.44,199.79,59.44,164s-1-69.18,24.06-94.24c17.37-17.38,37.43-26.73,66.5-26.73s49.12,9.36,66.5,26.73c25.06,25.06,24.06,58.48,24.06,94.24s1,69.18-24.06,94.24M173.39,105.54c-4.34-5.68-12.7-10.36-23.39-10.36s-19,4.68-23.4,10.36c-5.35,7-8.69,15-8.69,58.49s3.34,51.13,8.69,58.15c4.35,5.69,12.7,10.69,23.4,10.69s19-5,23.39-10.69c5.35-7,8.69-14.7,8.69-58.15s-3.35-51.46-8.69-58.49"/><g class="cls-5"><g class="cls-6"><path class="cls-7" d="M83.5,69.79c17.37-17.38,37.43-26.73,66.5-26.73,17.66,0,32,3.45,44.42,10.06,0,0-6.27,14.57-13.12,23.51S163,94,157.3,95.95a34.59,34.59,0,0,0-7.3-.76c-10.69,0-19,4.68-23.4,10.36Z"/></g></g><path class="cls-4" d="M178.65,15c-14.57,5.13-36.72,7.18-36.72,7.18l1.91,7c-5,7.1-12.74,13.91-28.4,19.82a87.91,87.91,0,0,0-32,21c-25.06,25.06-24,65-24,95.31l58.48-.08c0-43.78,4.06-52,9.4-59,8.38-10.88,23.39-18,30.51-30.57l2.74,9.93S177,58.63,178.65,15"/></g></g></g></g></svg>