<svg id="wambo-logo-with-tag-line" xmlns="http://www.w3.org/2000/svg" viewBox="0 0 746.37 253.35"><defs><style>.cls-1{font-size:48.41px;fill:#651c63;font-family:DINAlternate-Bold, DIN Alternate;font-weight:700;letter-spacing:0.01em;}.cls-2{letter-spacing:-0.02em;}.cls-3{letter-spacing:-0.02em;}.cls-4{fill:#e70095;}.cls-5{opacity:0.8;}</style></defs><title>wambo-logo-with-tag-line</title><text class="cls-1" transform="translate(33.22 240.07)">THE WEB SHOP FOR EVE<tspan class="cls-2" x="513.63" y="0">R</tspan><tspan x="541.95" y="0">YBO</tspan><tspan class="cls-3" x="625.92" y="0">D</tspan><tspan x="655.5" y="0">Y</tspan></text><g id="wambo"><g id="o"><path id="o-2" data-name="o" class="cls-4" d="M731,155.45c-11.11,11.11-23.92,17.08-42.5,17.08s-31.39-6-42.5-17.08c-16-16-15.38-37.37-15.38-60.22S630,51,646,35c11.1-11.11,23.92-17.08,42.5-17.08S719.89,23.9,731,35c16,16,15.37,37.37,15.37,60.22S747,139.44,731,155.45ZM703.45,57.86c-2.77-3.63-8.11-6.62-14.95-6.62s-12.17,3-14.95,6.62c-3.42,4.49-5.55,9.61-5.55,37.37s2.13,32.67,5.55,37.16a19.77,19.77,0,0,0,29.9,0c3.42-4.48,5.55-9.4,5.55-37.16S706.86,62.34,703.45,57.86Z"/><g id="arrow"><path id="shadow" class="cls-5" d="M646,35c11.1-11.11,23.92-17.08,42.5-17.08,11.29,0,20.44,2.21,28.38,6.43,0,0-4,9.31-8.38,15S696.78,50.5,693.16,51.73a22.12,22.12,0,0,0-4.66-.49c-6.83,0-12.17,3-14.95,6.62Z"/><path id="arrow-2" data-name="arrow" class="cls-4" d="M706.35,0C697,3.28,682.89,4.59,682.89,4.59L684.11,9C680.9,13.57,676,17.93,666,21.7A55.74,55.74,0,0,0,645.5,34.92c-16,16-14.87,40.72-14.87,60.72H668c0-28,2.13-33.09,5.55-37.58,5.35-7,14.95-11.43,19.5-19.44L694.8,45S705.31,27.88,706.35,0Z"/></g></g><path id="b" class="cls-4" d="M561,171.25H497.37v-152h61.07c29.68,0,47,16.66,47,42.71,0,16.87-11.1,27.76-18.79,31.39,9.18,4.27,20.93,13.88,20.93,34.17C607.56,155.88,588.13,171.25,561,171.25ZM556.09,45.69h-29v35h29c12.6,0,19.65-7,19.65-17.51S568.69,45.69,556.09,45.69ZM558,107.4h-31v37.37h31c13.46,0,19.86-8.54,19.86-18.79S571.47,107.4,558,107.4Z"/><path id="m" class="cls-4" d="M436.93,171.25V69.61l-35,74.1H384.82l-35.88-74.1V171.25H325.88v-152h23.06l44.42,94.6,43.56-94.6H460v152Z"/><path id="a" class="cls-4" d="M286.16,171.25,274,136.87H207.57L195.4,171.25H178.1l56-152h13.67l55.74,152ZM241.1,42.48l-28.62,80.29h56.8Z"/><path id="w" class="cls-4" d="M133.25,171.25H121.51L85.63,38.85,49.76,171.25H38L0,19.21H12.17l32,132.19L79.65,19.21h12l35.45,132.19,32-132.19h12.17Z"/></g></svg>