<svg xmlns="http://www.w3.org/2000/svg" viewBox="0 0 300 300"><defs><style>.cls-1{fill:#e70095;}.cls-2{opacity:0.8;}</style></defs><title>wambo-logo-squared</title><g id="wambo-logo-squared"><g id="logo"><g id="bo"><g id="o"><path id="o-2" data-name="o" class="cls-1" d="M273.39,279.68c-12.56,12.56-27,19.32-48.05,19.32s-35.5-6.76-48.05-19.32c-18.11-18.11-17.39-42.25-17.39-68.09s-.72-50,17.39-68.09c12.55-12.56,27-19.32,48.05-19.32s35.49,6.76,48.05,19.32c18.11,18.11,17.38,42.25,17.38,68.09S291.5,261.58,273.39,279.68ZM242.24,169.33c-3.14-4.1-9.17-7.48-16.9-7.48s-13.76,3.38-16.9,7.48c-3.86,5.07-6.28,10.87-6.28,42.26s2.41,36.94,6.28,42c3.14,4.11,9.18,7.73,16.9,7.73s13.76-3.62,16.9-7.73c3.86-5.07,6.28-10.62,6.28-42S246.1,174.41,242.24,169.33Z"/><g id="arrow"><path id="shadow" class="cls-2" d="M177.29,143.5c12.55-12.56,27-19.32,48.05-19.32,12.76,0,23.11,2.49,32.09,7.27,0,0-4.53,10.53-9.48,17s-13.25,12.58-17.34,14a25,25,0,0,0-5.27-.55c-7.73,0-13.76,3.38-16.9,7.48Z"/><path id="arrow-2" data-name="arrow" class="cls-1" d="M246,103.91c-10.53,3.71-26.53,5.18-26.53,5.18l1.38,5c-3.63,5.13-9.21,10.05-20.52,14.32a63,63,0,0,0-23.14,14.92C159.12,161.48,159.9,190,159.9,212h42.26c0-31,2.93-37.39,6.79-42.46,6.05-7.86,16.9-12.91,22-22l2,7.23S244.87,135.44,246,103.91Z"/></g></g><path id="b" class="cls-1" d="M81.18,298.55h-72V126.63H78.28c33.56,0,53.12,18.83,53.12,48.3,0,19.07-12.55,31.39-21.25,35.49,10.38,4.83,23.66,15.7,23.66,38.63C133.82,281.17,111.84,298.55,81.18,298.55Zm-5.55-142H42.78v39.6H75.62c14.25,0,22.22-8,22.22-19.8S89.87,156.57,75.62,156.57Zm2.17,69.78h-35v42.26h35c15.21,0,22.46-9.66,22.46-21.25S93,226.35,77.8,226.35Z"/></g><g id="wam"><path id="m" class="cls-1" d="M276.66,93.07V30.85L255.23,76.2H244.77l-22-45.36V93.07H208.69V0h14.12L250,57.91,276.66,0h14.12V93.07Z"/><path id="a" class="cls-1" d="M184.38,93.07l-7.45-21H136.28l-7.45,21H118.24L152.48,0h8.37L195,93.07ZM156.8,14.25,139.28,63.39h34.77Z"/><path id="w" class="cls-1" d="M90.79,93.07H83.59l-22-81-22,81H32.49L9.22,0h7.45L36.28,80.91,58,0H65.3L87,80.91,106.6,0h7.45Z"/></g></g></g></svg>