<svg id="Layer_1" data-name="Layer 1" xmlns="http://www.w3.org/2000/svg" viewBox="0 0 313.05 374.13"><defs><style>.cls-1{fill:#e70095;}.cls-1,.cls-2,.cls-3,.cls-4{fill-rule:evenodd;}.cls-2{fill:#2c6614;}.cls-4{fill:#e6e6e6;}</style></defs><title>wambo-squirrel</title><g id="Squirrel"><path id="Body" class="cls-1" d="M289,229H233.54c-3.48,0-3.5,0-3.5,3.28q0,17.25,0,34.5a28.14,28.14,0,0,0,0,3c.18,1.62-.1,2.39-2.09,2.29-4-.21-8,0-12-.09-1.47,0-2,.33-2,1.89.08,7.66,0,15.33.09,23,0,1.8-.41,2.26-2.2,2.19-4.16-.15-8.33,0-12.5-.07-1.1,0-1.38.42-1.37,1.46,0,5.67,0,11.33,0,17,0,2.53,0,2.54-2.73,2.56-3.83,0-7.67,0-11.5,0-1.11,0-1.82,0-1.81,1.53q.1,17.5,0,35c0,1.56.78,1.5,1.84,1.49,4.17,0,8.33,0,12.5,0,1.22,0,1.76.24,1.72,1.62-.1,4.65-.08,9.31-.1,14-4.41.94-8.88.34-13.32.4-9.16.11-18.33,0-27.5.09-1.87,0-2.17-.51-2.16-2.23.08-11.16.05-22.33,0-33.5,0-2.29,0-2.32-2.46-2.32q-8,0-16,0c-2.49,0-2.53,0-2.53,2.25q0,8.75,0,17.5c0,2.22,0,2.24,2.54,2.25,4,0,8,0,12,0,1,0,1.49.24,1.48,1.35,0,4.5,0,9,0,13.5,0,.8-.29,1.22-1.13,1.17-.33,0-.67,0-1,0-13,0-26,0-39,0-1.54,0-1.92-.45-1.91-1.94.06-11.33,0-22.66.09-34,0-1.92-.58-2.16-2.26-2.13-7.16.09-14.33.05-21.5,0-2.27,0-2.27,0-2.3-2.48,0-.5,0-1,0-1.5-.19-3.95.41-7.92-.34-11.86-4-.05-8-.14-11.93-.15-7.67,0-15.33,0-23,0-2.69,0-2.72,0-2.72-2.56,0-5.67,0-11.33,0-17,0-1-.27-1.47-1.37-1.46-4.33,0-8.67,0-13,0-1.3,0-1.82-.37-1.66-1.67a16.93,16.93,0,0,0,0-2V190.9c0-.83,0-1.67,0-2.5-.08-1.09.39-1.4,1.43-1.39,4.17,0,8.34-.12,12.5.08,2,.09,2.14-.63,2.12-2.27-.08-7.5,0-15,0-22.5,0-2.26,0-2.26,2.49-2.29.33,0,.67,0,1,0,4.11-.21,8.25.45,12.35-.35,0-4.15.14-8.29.14-12.44,0-14.66,0-29.33,0-44,0-1.63-.13-2.37-2.11-2.28-4.16.2-8.33,0-12.5.08-1,0-1.46-.29-1.44-1.39,0-4.33,0-8.67,0-13,0-1.32-.4-1.67-1.69-1.66-7.83.05-15.66,0-23.5.06-1.59,0-1.91-.53-1.88-2,.09-4-.12-8,.1-12,.11-2-.71-2.13-2.3-2.09-4,.09-8,0-12,0C.69,69.05,0,69,0,67.5q.1-17,0-34C0,31.94.79,32,1.85,32c4.17,0,8.33,0,12.5,0,1.23,0,1.75-.26,1.72-1.63-.09-4.33,0-8.67-.05-13,0-1.07.35-1.43,1.41-1.42,4.33,0,8.67,0,13,0,1.37,0,1.65-.48,1.63-1.72C32,10.18,32.11,6,32,1.85,32,.21,32.6,0,34,0c9.33.05,18.66,0,28,0H81.5C86,0,86,0,86,4.79c0,2.83,0,5.67,0,8.5s0,2.73,2.55,2.74c3.83,0,7.67.06,11.5,0,1.45,0,2,.27,2,1.87-.11,4.16,0,8.33-.06,12.5,0,1.28.33,1.71,1.66,1.69,4.33-.08,8.66,0,13,0,1.09,0,1.4.4,1.39,1.44,0,4.17.12,8.34-.08,12.5-.09,2,.64,2.16,2.27,2.12,4-.11,8,0,12-.08,1.68-.05,2,.67,1.79,2a3.63,3.63,0,0,0,0,.5q0,43,0,86c0,2.46,0,2.49-2.28,2.5-3.67,0-7.33,0-11,0-2.68,0-2.71,0-2.71,2.57,0,9,0,18,0,27,0,2.39,0,2.41-2.36,2.42-4,0-8,.06-12,0-1.31,0-1.67.39-1.67,1.68,0,9.33,0,18.66,0,28,0,2.31,0,2.33-2.43,2.35-3.83,0-7.67.16-11.49-.06-2-.12-2.1.7-2.09,2.29q.07,32.25,0,64.49c0,2.25,0,2.33,2.51,2.26,4.45-.13,8.92.43,13.35-.34,0-4.31.12-8.63.13-12.94,0-10.83,0-21.66,0-32.5,0-1.66.19-2.35,2.13-2.26,4.16.19,8.33,0,12.5.08,1.06,0,1.44-.32,1.43-1.4,0-6,0-12,0-18,0-1.34.44-1.67,1.7-1.65,4.16.07,8.33-.05,12.5.06,1.62,0,1.87-.57,1.86-2-.06-8.83,0-17.66,0-26.5,0-3.53,0-3.53,3.75-3.54h8.5c3.74,0,3.75,0,3.75-4q0-13.25,0-26.5c0-10.83,0-21.66,0-32.5,0-1.42.23-2.06,1.85-2,4,.12,8-.05,12,.08,1.72.06,2.25-.29,2.23-2.16-.11-11.66-.05-23.33-.05-35,0-1.17.05-2.34,0-3.5s.35-1.42,1.42-1.41c4.33,0,8.67.07,13,0,1.38,0,1.63.5,1.62,1.72,0,7.33,0,14.66,0,22,0,2.28,0,2.3,2.47,2.31q13.5,0,27,0C214,90,214,90,214,87.26c0-7.17,0-14.33,0-21.5,0-1.16.12-1.85,1.58-1.76,4.77.31,9.58-.47,14.33.42,0,4.48.09,9,.1,13.45,0,8.83,0,17.66,0,26.5,0,1.28.34,1.7,1.66,1.69,7.83-.06,15.66,0,23.5-.06,1.56,0,1.93.48,1.9,2-.09,4.33.1,8.67-.09,13-.09,2,.64,2.14,2.28,2.12,5.5-.09,11,0,16.5,0,2.26,0,2.28,0,2.28,2.5q0,9.25,0,18.5c-10,0-19.9,0-29.85,0-1.76,0-2.22.37-2.2,2.17.11,8.62.05,17.25.05,25.87-4.79,0-9.58,0-14.36,0-1.28,0-1.69.36-1.66,1.65.07,4.46,0,8.92,0,13.37s0,9,0,13.46c0,2.51,0,2.54,2.73,2.54h62.3c1.16,0,2.33.05,3.49,0,1-.06,1.5.19,1.5,1.32q0,11.71,0,23.42c0,1.17-.57,1.32-1.53,1.29-1.49-.06-3,0-4.48,0ZM208.28,133.1V133c1.49,0,3,0,4.48,0,1.17,0,1.37-.57,1.28-1.53,0-.49,0-1,0-1.49-.15-2.28.35-4.58-.33-6.83-2.13-.05-4.27-.15-6.4-.15-4.25,0-4.3,0-4.23,4.49,0,1.78-.81,4.06.45,5.19C204.46,133.56,206.64,133,208.28,133.1Zm32.94,0c1.41-.43,3.49.76,4.52-.52.74-.92.28-2.84.28-4.31,0-1.64.49-3.71-.31-4.79s-3.07-.42-4.68-.41-3.68-.75-4.7.43c-.75.86-.29,2.82-.28,4.3,0,1.64-.49,3.71.31,4.79S239.44,132.82,241.22,133.1Z"/><path id="yoyo" class="cls-2" d="M297,272c1.95.2,4.47-.9,5.68.5.92,1.06.26,3.48.32,5.29.06,1.64-.46,3.74.36,4.79s3.09.32,4.72.41a30.74,30.74,0,0,0,3.5,0c1.05-.06,1.44.31,1.44,1.39,0,6.16,0,12.33,0,18.5,0,.84-.38,1.14-1.18,1.13-2.5,0-5,0-7.5,0-1.12,0-1.38.46-1.35,1.48.06,2.17,0,4.33,0,6.5,0,3,0,3-2.75,3-5.83,0-11.67,0-17.5,0-1.14,0-1.84-.08-1.79-1.56.11-3,0-6,0-9-2.89-1-5.87-.29-8.8-.45-1.26-.06-1.17-.81-1.17-1.65,0-3.5,0-7,0-10.5,0-2.82.05-5.64.08-8.46,2.74-1,5.55-.27,8.33-.36,1.39,0,1.62-.56,1.61-1.76,0-3,.07-6,.12-8.94,3.26-.77,6.57-.16,9.85-.35.33,0,.67,0,1,0Z"/><path id="Nose" class="cls-3" d="M246,172c0-8.62.06-17.25-.05-25.87,0-1.81.44-2.19,2.2-2.17,10,.1,19.9,0,29.85,0q0,12,0,24c0,3,0,3-3.24,3-5.32,0-10.65,0-16,0-.72,0-1.78-.39-1.79,1Z"/><path id="Mouth" class="cls-4" d="M246,172h11c0,4.47-.05,8.94,0,13.41,0,1.36-.48,1.62-1.71,1.62-8.44,0-16.88,0-25.32,0,0-4.46,0-8.92,0-13.37,0-1.3.38-1.67,1.66-1.65C236.46,172.07,241.25,172,246,172Z"/><path id="String" class="cls-3" d="M294,272h-5V229h5Z"/><path id="Eye_2" data-name="Eye 2" class="cls-3" d="M208.28,133.1c-1.64-.08-3.82.46-4.77-.39-1.26-1.12-.42-3.41-.45-5.19C203,123,203,123,207.29,123c2.13,0,4.27.1,6.4.15.69,2.25.18,4.56.33,6.83,0,.5,0,1,0,1.49.09,1-.11,1.57-1.28,1.53-1.49-.06-3,0-4.48,0Z"/><path id="Eye_1" data-name="Eye 1" class="cls-3" d="M241.22,133.1c-1.79-.28-4,.68-4.86-.52s-.31-3.16-.31-4.79c0-1.47-.47-3.43.28-4.3,1-1.17,3.09-.42,4.7-.43s3.8-.77,4.68.41.31,3.16.31,4.79c0,1.47.46,3.39-.28,4.31C244.72,133.86,242.64,132.67,241.22,133.1Z"/></g></svg>